<mxfile host="app.diagrams.net" modified="2023-09-12T08:49:44.905Z" agent="Mozilla/5.0 (Windows NT 10.0; Win64; x64) AppleWebKit/537.36 (KHTML, like Gecko) Chrome/116.0.0.0 Safari/537.36 Edg/116.0.1938.76" etag="zyUpQ1oU_bzK7i4A5js4" version="21.7.4" type="onedrive">
  <diagram name="Seite-1" id="Nr2u1hR7h96ugxyO9wR_">
    <mxGraphModel grid="1" page="1" gridSize="10" guides="1" tooltips="1" connect="1" arrows="1" fold="1" pageScale="1" pageWidth="2339" pageHeight="3300" math="0" shadow="0">
      <root>
        <mxCell id="0" />
        <mxCell id="1" parent="0" />
        <object placeholders="1" c4Type="Order Entry " c4Container="" c4Technology="Container: e.g. Vue.JS." c4Description="web browser container which Offers a &quot;single-page application&quot; where customers can place their order." label="&lt;font style=&quot;font-size: 16px&quot;&gt;&lt;b&gt;%c4Type%&lt;/b&gt;&lt;/font&gt;&lt;div&gt;[%c4Container%:&amp;nbsp;%c4Technology%]&lt;/div&gt;&lt;br&gt;&lt;div&gt;&lt;font style=&quot;font-size: 11px&quot;&gt;&lt;font color=&quot;#E6E6E6&quot;&gt;%c4Description%&lt;/font&gt;&lt;/div&gt;" id="bpwPU3LfMTQjBl9-YYhJ-26">
          <mxCell style="shape=mxgraph.c4.webBrowserContainer2;whiteSpace=wrap;html=1;boundedLbl=1;rounded=0;labelBackgroundColor=none;strokeColor=#118ACD;fillColor=#23A2D9;strokeColor=#118ACD;strokeColor2=#0E7DAD;fontSize=12;fontColor=#ffffff;align=center;metaEdit=1;points=[[0.5,0,0],[1,0.25,0],[1,0.5,0],[1,0.75,0],[0.5,1,0],[0,0.75,0],[0,0.5,0],[0,0.25,0]];resizable=1;editable=1;movable=1;rotatable=1;deletable=1;locked=0;connectable=1;" vertex="1" parent="1">
            <mxGeometry x="340" y="330" width="190" height="140" as="geometry" />
          </mxCell>
        </object>
        <mxCell id="bpwPU3LfMTQjBl9-YYhJ-28" style="edgeStyle=orthogonalEdgeStyle;rounded=0;orthogonalLoop=1;jettySize=auto;html=1;" edge="1" parent="1" source="bpwPU3LfMTQjBl9-YYhJ-27" target="bpwPU3LfMTQjBl9-YYhJ-26">
          <mxGeometry relative="1" as="geometry" />
        </mxCell>
        <mxCell id="OgZBjtJ-NomViNMuKFCO-21" value="&lt;div style=&quot;box-sizing: content-box; -webkit-font-smoothing: antialiased; font-family: Helvetica, &amp;quot;VP Default&amp;quot;; font-size: 12px;&quot;&gt;&lt;font style=&quot;font-size: 12px;&quot;&gt;visits bicycle.de&lt;/font&gt;&lt;/div&gt;&lt;div style=&quot;box-sizing: content-box; -webkit-font-smoothing: antialiased; font-family: Helvetica, &amp;quot;VP Default&amp;quot;; font-size: 12px;&quot;&gt;&lt;font style=&quot;font-size: 12px;&quot;&gt;and place an&lt;/font&gt;&lt;/div&gt;&lt;div style=&quot;box-sizing: content-box; -webkit-font-smoothing: antialiased; font-family: Helvetica, &amp;quot;VP Default&amp;quot;; font-size: 12px;&quot;&gt;&lt;font style=&quot;font-size: 12px;&quot;&gt;order&lt;/font&gt;&lt;/div&gt;" style="edgeLabel;html=1;align=center;verticalAlign=middle;resizable=0;points=[];" connectable="0" vertex="1" parent="bpwPU3LfMTQjBl9-YYhJ-28">
          <mxGeometry x="0.1367" y="-1" relative="1" as="geometry">
            <mxPoint x="1" y="-23" as="offset" />
          </mxGeometry>
        </mxCell>
        <object placeholders="1" c4Name="Customer" c4Type="Person" c4Description="A customer of the bicycle manufacturer who wants to place an order." label="&lt;font style=&quot;font-size: 16px&quot;&gt;&lt;b&gt;%c4Name%&lt;/b&gt;&lt;/font&gt;&lt;div&gt;[%c4Type%]&lt;/div&gt;&lt;br&gt;&lt;div&gt;&lt;font style=&quot;font-size: 11px&quot;&gt;&lt;font color=&quot;#cccccc&quot;&gt;%c4Description%&lt;/font&gt;&lt;/div&gt;" id="bpwPU3LfMTQjBl9-YYhJ-27">
          <mxCell style="html=1;fontSize=11;dashed=0;whiteSpace=wrap;fillColor=#6C6477;strokeColor=#4D4D4D;fontColor=#ffffff;shape=mxgraph.c4.person2;align=center;metaEdit=1;points=[[0.5,0,0],[1,0.5,0],[1,0.75,0],[0.75,1,0],[0.5,1,0],[0.25,1,0],[0,0.75,0],[0,0.5,0]];resizable=1;editable=1;movable=1;rotatable=1;deletable=1;locked=0;connectable=1;" vertex="1" parent="1">
            <mxGeometry x="350" y="50" width="170" height="150" as="geometry" />
          </mxCell>
        </object>
        <mxCell id="bpwPU3LfMTQjBl9-YYhJ-29" value="" style="whiteSpace=wrap;html=1;aspect=fixed;" vertex="1" parent="1">
          <mxGeometry x="690" y="135" width="830" height="830" as="geometry" />
        </mxCell>
        <mxCell id="bpwPU3LfMTQjBl9-YYhJ-31" value="&lt;b&gt;BPA-LAB Kernsystem&lt;/b&gt;" style="text;strokeColor=none;align=center;fillColor=none;html=1;verticalAlign=middle;whiteSpace=wrap;rounded=0;" vertex="1" parent="1">
          <mxGeometry x="690" y="935" width="150" height="30" as="geometry" />
        </mxCell>
        <mxCell id="bpwPU3LfMTQjBl9-YYhJ-52" style="edgeStyle=orthogonalEdgeStyle;rounded=0;orthogonalLoop=1;jettySize=auto;html=1;" edge="1" parent="1" source="bpwPU3LfMTQjBl9-YYhJ-32" target="bpwPU3LfMTQjBl9-YYhJ-36">
          <mxGeometry relative="1" as="geometry">
            <Array as="points">
              <mxPoint x="1104" y="315" />
              <mxPoint x="845" y="315" />
            </Array>
          </mxGeometry>
        </mxCell>
        <mxCell id="bpwPU3LfMTQjBl9-YYhJ-54" style="edgeStyle=orthogonalEdgeStyle;rounded=0;orthogonalLoop=1;jettySize=auto;html=1;" edge="1" parent="1" source="bpwPU3LfMTQjBl9-YYhJ-32" target="bpwPU3LfMTQjBl9-YYhJ-35">
          <mxGeometry relative="1" as="geometry">
            <Array as="points">
              <mxPoint x="1104" y="315" />
              <mxPoint x="1025" y="315" />
            </Array>
          </mxGeometry>
        </mxCell>
        <mxCell id="bpwPU3LfMTQjBl9-YYhJ-55" style="edgeStyle=orthogonalEdgeStyle;rounded=0;orthogonalLoop=1;jettySize=auto;html=1;" edge="1" parent="1" source="bpwPU3LfMTQjBl9-YYhJ-32" target="bpwPU3LfMTQjBl9-YYhJ-34">
          <mxGeometry relative="1" as="geometry">
            <Array as="points">
              <mxPoint x="1104" y="315" />
              <mxPoint x="1205" y="315" />
            </Array>
          </mxGeometry>
        </mxCell>
        <mxCell id="bpwPU3LfMTQjBl9-YYhJ-56" style="edgeStyle=orthogonalEdgeStyle;rounded=0;orthogonalLoop=1;jettySize=auto;html=1;" edge="1" parent="1" source="bpwPU3LfMTQjBl9-YYhJ-32" target="bpwPU3LfMTQjBl9-YYhJ-33">
          <mxGeometry relative="1" as="geometry">
            <Array as="points">
              <mxPoint x="1104" y="315" />
              <mxPoint x="1375" y="315" />
            </Array>
          </mxGeometry>
        </mxCell>
        <object placeholders="1" c4Name="BPMS" c4Type="Container" c4Technology="e.g. Camunda BPM" c4Description="Orchestrates and automates the Process model" label="&lt;font style=&quot;font-size: 16px&quot;&gt;&lt;b&gt;%c4Name%&lt;/b&gt;&lt;/font&gt;&lt;div&gt;[%c4Type%: %c4Technology%]&lt;/div&gt;&lt;br&gt;&lt;div&gt;&lt;font style=&quot;font-size: 11px&quot;&gt;&lt;font color=&quot;#E6E6E6&quot;&gt;%c4Description%&lt;/font&gt;&lt;/div&gt;" id="bpwPU3LfMTQjBl9-YYhJ-32">
          <mxCell style="rounded=1;whiteSpace=wrap;html=1;fontSize=11;labelBackgroundColor=none;fillColor=#23A2D9;fontColor=#ffffff;align=center;arcSize=10;strokeColor=#0E7DAD;metaEdit=1;resizable=1;points=[[0.25,0,0],[0.5,0,0],[0.75,0,0],[1,0.25,0],[1,0.5,0],[1,0.75,0],[0.75,1,0],[0.5,1,0],[0.25,1,0],[0,0.75,0],[0,0.5,0],[0,0.25,0]];editable=1;movable=1;rotatable=1;deletable=1;locked=0;connectable=1;" vertex="1" parent="1">
            <mxGeometry x="1029" y="175" width="150" height="100" as="geometry" />
          </mxCell>
        </object>
        <object placeholders="1" c4Name="Process Application - Shipping" c4Type="Container" c4Technology="e.g. BPMN, Java, SpringBoot, Node.js etc." c4Description="Contains the process model, Form(s), and Job Worker. " label="&lt;font style=&quot;font-size: 16px&quot;&gt;&lt;b&gt;%c4Name%&lt;/b&gt;&lt;/font&gt;&lt;div&gt;[%c4Type%: %c4Technology%]&lt;/div&gt;&lt;br&gt;&lt;div&gt;&lt;font style=&quot;font-size: 11px&quot;&gt;&lt;font color=&quot;#E6E6E6&quot;&gt;%c4Description%&lt;/font&gt;&lt;/div&gt;" id="bpwPU3LfMTQjBl9-YYhJ-33">
          <mxCell style="rounded=1;whiteSpace=wrap;html=1;fontSize=11;labelBackgroundColor=none;fillColor=#23A2D9;fontColor=#ffffff;align=center;arcSize=10;strokeColor=#0E7DAD;metaEdit=1;resizable=1;points=[[0.25,0,0],[0.5,0,0],[0.75,0,0],[1,0.25,0],[1,0.5,0],[1,0.75,0],[0.75,1,0],[0.5,1,0],[0.25,1,0],[0,0.75,0],[0,0.5,0],[0,0.25,0]];editable=1;movable=1;rotatable=1;deletable=1;locked=0;connectable=1;" vertex="1" parent="1">
            <mxGeometry x="1320" y="355" width="170" height="130" as="geometry" />
          </mxCell>
        </object>
        <object placeholders="1" c4Name="Process Application - Logistics" c4Type="Container" c4Technology="e.g. BPMN, Java, SpringBoot, Node.js etc." c4Description="Contains the process model, Form(s), and Job Worker. " label="&lt;font style=&quot;font-size: 16px&quot;&gt;&lt;b&gt;%c4Name%&lt;/b&gt;&lt;/font&gt;&lt;div&gt;[%c4Type%: %c4Technology%]&lt;/div&gt;&lt;br&gt;&lt;div&gt;&lt;font style=&quot;font-size: 11px&quot;&gt;&lt;font color=&quot;#E6E6E6&quot;&gt;%c4Description%&lt;/font&gt;&lt;/div&gt;" id="bpwPU3LfMTQjBl9-YYhJ-34">
          <mxCell style="rounded=1;whiteSpace=wrap;html=1;fontSize=11;labelBackgroundColor=none;fillColor=#23A2D9;fontColor=#ffffff;align=center;arcSize=10;strokeColor=#0E7DAD;metaEdit=1;resizable=1;points=[[0.25,0,0],[0.5,0,0],[0.75,0,0],[1,0.25,0],[1,0.5,0],[1,0.75,0],[0.75,1,0],[0.5,1,0],[0.25,1,0],[0,0.75,0],[0,0.5,0],[0,0.25,0]];editable=1;movable=1;rotatable=1;deletable=1;locked=0;connectable=1;" vertex="1" parent="1">
            <mxGeometry x="1140" y="355" width="160" height="130" as="geometry" />
          </mxCell>
        </object>
        <object placeholders="1" c4Name="Process Aplication - &#xa;Production execution" c4Type="Container" c4Technology="e.g. BPMN, Java, SpringBoot, Node.js etc." c4Description="Contains the process model, Form(s), and Job Worker. " label="&lt;font style=&quot;font-size: 16px&quot;&gt;&lt;b&gt;%c4Name%&lt;/b&gt;&lt;/font&gt;&lt;div&gt;[%c4Type%: %c4Technology%]&lt;/div&gt;&lt;br&gt;&lt;div&gt;&lt;font style=&quot;font-size: 11px&quot;&gt;&lt;font color=&quot;#E6E6E6&quot;&gt;%c4Description%&lt;/font&gt;&lt;/div&gt;" id="bpwPU3LfMTQjBl9-YYhJ-35">
          <mxCell style="rounded=1;whiteSpace=wrap;html=1;fontSize=11;labelBackgroundColor=none;fillColor=#23A2D9;fontColor=#ffffff;align=center;arcSize=10;strokeColor=#0E7DAD;metaEdit=1;resizable=1;points=[[0.25,0,0],[0.5,0,0],[0.75,0,0],[1,0.25,0],[1,0.5,0],[1,0.75,0],[0.75,1,0],[0.5,1,0],[0.25,1,0],[0,0.75,0],[0,0.5,0],[0,0.25,0]];editable=1;movable=1;rotatable=1;deletable=1;locked=0;connectable=1;" vertex="1" parent="1">
            <mxGeometry x="950" y="355" width="170" height="130" as="geometry" />
          </mxCell>
        </object>
        <mxCell id="bpwPU3LfMTQjBl9-YYhJ-53" style="edgeStyle=orthogonalEdgeStyle;rounded=0;orthogonalLoop=1;jettySize=auto;html=1;entryX=0.5;entryY=1;entryDx=0;entryDy=0;entryPerimeter=0;" edge="1" parent="1" source="bpwPU3LfMTQjBl9-YYhJ-36" target="bpwPU3LfMTQjBl9-YYhJ-32">
          <mxGeometry relative="1" as="geometry">
            <Array as="points">
              <mxPoint x="845" y="315" />
              <mxPoint x="1104" y="315" />
            </Array>
          </mxGeometry>
        </mxCell>
        <object placeholders="1" c4Name="Process Application - Order Management" c4Type="Container" c4Technology="e.g. BPMN, Java, SpringBoot, Node.js etc." c4Description="Contains the process model, Form(s), and Job Worker. " label="&lt;font style=&quot;font-size: 16px&quot;&gt;&lt;b&gt;%c4Name%&lt;/b&gt;&lt;/font&gt;&lt;div&gt;[%c4Type%: %c4Technology%]&lt;/div&gt;&lt;br&gt;&lt;div&gt;&lt;font style=&quot;font-size: 11px&quot;&gt;&lt;font color=&quot;#E6E6E6&quot;&gt;%c4Description%&lt;/font&gt;&lt;/div&gt;" id="bpwPU3LfMTQjBl9-YYhJ-36">
          <mxCell style="rounded=1;whiteSpace=wrap;html=1;fontSize=11;labelBackgroundColor=none;fillColor=#23A2D9;fontColor=#ffffff;align=center;arcSize=10;strokeColor=#0E7DAD;metaEdit=1;resizable=1;points=[[0.25,0,0],[0.5,0,0],[0.75,0,0],[1,0.25,0],[1,0.5,0],[1,0.75,0],[0.75,1,0],[0.5,1,0],[0.25,1,0],[0,0.75,0],[0,0.5,0],[0,0.25,0]];editable=1;movable=1;rotatable=1;deletable=1;locked=0;connectable=1;" vertex="1" parent="1">
            <mxGeometry x="760" y="355" width="170" height="130" as="geometry" />
          </mxCell>
        </object>
        <object placeholders="1" c4Name="" c4Type="" c4Application="" label="&lt;font style=&quot;font-size: 16px&quot;&gt;&lt;b&gt;&lt;div style=&quot;text-align: left&quot;&gt;%c4Name%&lt;/div&gt;&lt;/b&gt;&lt;/font&gt;&lt;div style=&quot;text-align: left&quot;&gt;[%c4Application%]&lt;/div&gt;" id="bpwPU3LfMTQjBl9-YYhJ-37">
          <mxCell style="rounded=1;fontSize=11;whiteSpace=wrap;html=1;dashed=1;arcSize=20;fillColor=none;strokeColor=#666666;fontColor=#333333;labelBackgroundColor=none;align=left;verticalAlign=bottom;labelBorderColor=none;spacingTop=0;spacing=10;dashPattern=8 4;metaEdit=1;rotatable=0;perimeter=rectanglePerimeter;noLabel=0;labelPadding=0;allowArrows=0;connectable=0;expand=0;recursiveResize=0;editable=1;pointerEvents=0;absoluteArcSize=1;points=[[0.25,0,0],[0.5,0,0],[0.75,0,0],[1,0.25,0],[1,0.5,0],[1,0.75,0],[0.75,1,0],[0.5,1,0],[0.25,1,0],[0,0.75,0],[0,0.5,0],[0,0.25,0]];" vertex="1" parent="1">
            <mxGeometry x="750" y="345" width="750" height="150" as="geometry" />
          </mxCell>
        </object>
        <mxCell id="bpwPU3LfMTQjBl9-YYhJ-44" style="edgeStyle=orthogonalEdgeStyle;rounded=0;orthogonalLoop=1;jettySize=auto;html=1;" edge="1" parent="1" source="bpwPU3LfMTQjBl9-YYhJ-38" target="bpwPU3LfMTQjBl9-YYhJ-40">
          <mxGeometry relative="1" as="geometry" />
        </mxCell>
        <mxCell id="bpwPU3LfMTQjBl9-YYhJ-46" style="edgeStyle=orthogonalEdgeStyle;rounded=0;orthogonalLoop=1;jettySize=auto;html=1;" edge="1" parent="1" source="bpwPU3LfMTQjBl9-YYhJ-38" target="bpwPU3LfMTQjBl9-YYhJ-41">
          <mxGeometry relative="1" as="geometry">
            <Array as="points">
              <mxPoint x="1115" y="705" />
              <mxPoint x="860" y="705" />
            </Array>
          </mxGeometry>
        </mxCell>
        <mxCell id="bpwPU3LfMTQjBl9-YYhJ-47" style="edgeStyle=orthogonalEdgeStyle;rounded=0;orthogonalLoop=1;jettySize=auto;html=1;" edge="1" parent="1" source="bpwPU3LfMTQjBl9-YYhJ-38" target="bpwPU3LfMTQjBl9-YYhJ-39">
          <mxGeometry relative="1" as="geometry">
            <Array as="points">
              <mxPoint x="1115" y="705" />
              <mxPoint x="1375" y="705" />
            </Array>
          </mxGeometry>
        </mxCell>
        <object placeholders="1" c4Name="Broker" c4Type="" c4Technology="e.g. MQTT Broker" c4Description="Enables communication between the IoT devices and the BPMS" label="&lt;font style=&quot;font-size: 16px&quot;&gt;&lt;b&gt;%c4Name%&lt;/b&gt;&lt;/font&gt;&lt;div&gt;[%c4Type%: %c4Technology%]&lt;/div&gt;&lt;br&gt;&lt;div&gt;&lt;font style=&quot;font-size: 11px&quot;&gt;&lt;font color=&quot;#E6E6E6&quot;&gt;%c4Description%&lt;/font&gt;&lt;/div&gt;" id="bpwPU3LfMTQjBl9-YYhJ-38">
          <mxCell style="rounded=1;whiteSpace=wrap;html=1;fontSize=11;labelBackgroundColor=none;fillColor=#23A2D9;fontColor=#ffffff;align=center;arcSize=10;strokeColor=#0E7DAD;metaEdit=1;resizable=1;points=[[0.25,0,0],[0.5,0,0],[0.75,0,0],[1,0.25,0],[1,0.5,0],[1,0.75,0],[0.75,1,0],[0.5,1,0],[0.25,1,0],[0,0.75,0],[0,0.5,0],[0,0.25,0]];editable=1;movable=1;rotatable=1;deletable=1;locked=0;connectable=1;" vertex="1" parent="1">
            <mxGeometry x="1040" y="560" width="150" height="100" as="geometry" />
          </mxCell>
        </object>
        <object placeholders="1" c4Name="Raspberry Pi Controller App" c4Type="Container" c4Technology="e.g. Python Programm using ftroboby library" c4Description="Controls Sensor data." label="&lt;font style=&quot;font-size: 16px&quot;&gt;&lt;b&gt;%c4Name%&lt;/b&gt;&lt;/font&gt;&lt;div&gt;[%c4Type%: %c4Technology%]&lt;/div&gt;&lt;br&gt;&lt;div&gt;&lt;font style=&quot;font-size: 11px&quot;&gt;&lt;font color=&quot;#E6E6E6&quot;&gt;%c4Description%&lt;/font&gt;&lt;/div&gt;" id="bpwPU3LfMTQjBl9-YYhJ-39">
          <mxCell style="rounded=1;whiteSpace=wrap;html=1;fontSize=11;labelBackgroundColor=none;fillColor=#23A2D9;fontColor=#ffffff;align=center;arcSize=10;strokeColor=#0E7DAD;metaEdit=1;resizable=1;points=[[0.25,0,0],[0.5,0,0],[0.75,0,0],[1,0.25,0],[1,0.5,0],[1,0.75,0],[0.75,1,0],[0.5,1,0],[0.25,1,0],[0,0.75,0],[0,0.5,0],[0,0.25,0]];editable=1;movable=1;rotatable=1;deletable=1;locked=0;connectable=1;" vertex="1" parent="1">
            <mxGeometry x="1280" y="755" width="190" height="120" as="geometry" />
          </mxCell>
        </object>
        <mxCell id="bpwPU3LfMTQjBl9-YYhJ-45" style="edgeStyle=orthogonalEdgeStyle;rounded=0;orthogonalLoop=1;jettySize=auto;html=1;entryX=0.5;entryY=1;entryDx=0;entryDy=0;entryPerimeter=0;" edge="1" parent="1" source="bpwPU3LfMTQjBl9-YYhJ-40" target="bpwPU3LfMTQjBl9-YYhJ-38">
          <mxGeometry relative="1" as="geometry" />
        </mxCell>
        <object placeholders="1" c4Name="FT Controller App" c4Type="Container" c4Technology="e.g. Python Programm using ftroboby library" c4Description="Controlls the fischertechnik parts." label="&lt;font style=&quot;font-size: 16px&quot;&gt;&lt;b&gt;%c4Name%&lt;/b&gt;&lt;/font&gt;&lt;div&gt;[%c4Type%: %c4Technology%]&lt;/div&gt;&lt;br&gt;&lt;div&gt;&lt;font style=&quot;font-size: 11px&quot;&gt;&lt;font color=&quot;#E6E6E6&quot;&gt;%c4Description%&lt;/font&gt;&lt;/div&gt;" id="bpwPU3LfMTQjBl9-YYhJ-40">
          <mxCell style="rounded=1;whiteSpace=wrap;html=1;fontSize=11;labelBackgroundColor=none;fillColor=#23A2D9;fontColor=#ffffff;align=center;arcSize=10;strokeColor=#0E7DAD;metaEdit=1;resizable=1;points=[[0.25,0,0],[0.5,0,0],[0.75,0,0],[1,0.25,0],[1,0.5,0],[1,0.75,0],[0.75,1,0],[0.5,1,0],[0.25,1,0],[0,0.75,0],[0,0.5,0],[0,0.25,0]];editable=1;movable=1;rotatable=1;deletable=1;locked=0;connectable=1;" vertex="1" parent="1">
            <mxGeometry x="1025" y="755" width="180" height="120" as="geometry" />
          </mxCell>
        </object>
        <object placeholders="1" c4Name="Warehouse Controller App" c4Type="Container" c4Technology="e.g. Python Programm using ftroboby library" c4Description="Controls the warehouse robots." label="&lt;font style=&quot;font-size: 16px&quot;&gt;&lt;b&gt;%c4Name%&lt;/b&gt;&lt;/font&gt;&lt;div&gt;[%c4Type%: %c4Technology%]&lt;/div&gt;&lt;br&gt;&lt;div&gt;&lt;font style=&quot;font-size: 11px&quot;&gt;&lt;font color=&quot;#E6E6E6&quot;&gt;%c4Description%&lt;/font&gt;&lt;/div&gt;" id="bpwPU3LfMTQjBl9-YYhJ-41">
          <mxCell style="rounded=1;whiteSpace=wrap;html=1;fontSize=11;labelBackgroundColor=none;fillColor=#23A2D9;fontColor=#ffffff;align=center;arcSize=10;strokeColor=#0E7DAD;metaEdit=1;resizable=1;points=[[0.25,0,0],[0.5,0,0],[0.75,0,0],[1,0.25,0],[1,0.5,0],[1,0.75,0],[0.75,1,0],[0.5,1,0],[0.25,1,0],[0,0.75,0],[0,0.5,0],[0,0.25,0]];editable=1;movable=1;rotatable=1;deletable=1;locked=0;connectable=1;" vertex="1" parent="1">
            <mxGeometry x="770" y="755" width="180" height="120" as="geometry" />
          </mxCell>
        </object>
        <object placeholders="1" c4Name="" c4Type="" c4Application="" label="&lt;font style=&quot;font-size: 16px&quot;&gt;&lt;b&gt;&lt;div style=&quot;text-align: left&quot;&gt;%c4Name%&lt;/div&gt;&lt;/b&gt;&lt;/font&gt;&lt;div style=&quot;text-align: left&quot;&gt;[%c4Application%]&lt;/div&gt;" id="bpwPU3LfMTQjBl9-YYhJ-42">
          <mxCell style="rounded=1;fontSize=11;whiteSpace=wrap;html=1;dashed=1;arcSize=20;fillColor=none;strokeColor=#666666;fontColor=#333333;labelBackgroundColor=none;align=left;verticalAlign=bottom;labelBorderColor=none;spacingTop=0;spacing=10;dashPattern=8 4;metaEdit=1;rotatable=0;perimeter=rectanglePerimeter;noLabel=0;labelPadding=0;allowArrows=0;connectable=0;expand=0;recursiveResize=0;editable=1;pointerEvents=0;absoluteArcSize=1;points=[[0.25,0,0],[0.5,0,0],[0.75,0,0],[1,0.25,0],[1,0.5,0],[1,0.75,0],[0.75,1,0],[0.5,1,0],[0.25,1,0],[0,0.75,0],[0,0.5,0],[0,0.25,0]];" vertex="1" parent="1">
            <mxGeometry x="760" y="740" width="720" height="150" as="geometry" />
          </mxCell>
        </object>
        <object placeholders="1" c4Name="" c4Type="" c4Application="Shipping System" label="&lt;font style=&quot;font-size: 16px&quot;&gt;&lt;b&gt;&lt;div style=&quot;text-align: left&quot;&gt;%c4Name%&lt;/div&gt;&lt;/b&gt;&lt;/font&gt;&lt;div style=&quot;text-align: left&quot;&gt;[%c4Application%]&lt;/div&gt;" id="OgZBjtJ-NomViNMuKFCO-1">
          <mxCell style="rounded=1;fontSize=11;whiteSpace=wrap;html=1;dashed=1;arcSize=20;fillColor=none;strokeColor=#666666;fontColor=#333333;labelBackgroundColor=none;align=left;verticalAlign=bottom;labelBorderColor=none;spacingTop=0;spacing=10;dashPattern=8 4;metaEdit=1;rotatable=0;perimeter=rectanglePerimeter;noLabel=0;labelPadding=0;allowArrows=0;connectable=0;expand=0;recursiveResize=0;editable=1;pointerEvents=0;absoluteArcSize=1;points=[[0.25,0,0],[0.5,0,0],[0.75,0,0],[1,0.25,0],[1,0.5,0],[1,0.75,0],[0.75,1,0],[0.5,1,0],[0.25,1,0],[0,0.75,0],[0,0.5,0],[0,0.25,0]];" vertex="1" parent="1">
            <mxGeometry x="1650" y="330" width="200" height="190" as="geometry" />
          </mxCell>
        </object>
        <object placeholders="1" c4Name="Shipping RPA " c4Type="Container" c4Technology="e.g. SpringBoot, Java, html etc." c4Description="Responsible for end product shipment" label="&lt;font style=&quot;font-size: 16px&quot;&gt;&lt;b&gt;%c4Name%&lt;/b&gt;&lt;/font&gt;&lt;div&gt;[%c4Type%: %c4Technology%]&lt;/div&gt;&lt;br&gt;&lt;div&gt;&lt;font style=&quot;font-size: 11px&quot;&gt;&lt;font color=&quot;#E6E6E6&quot;&gt;%c4Description%&lt;/font&gt;&lt;/div&gt;" id="OgZBjtJ-NomViNMuKFCO-2">
          <mxCell style="rounded=1;whiteSpace=wrap;html=1;fontSize=11;labelBackgroundColor=none;fillColor=#23A2D9;fontColor=#ffffff;align=center;arcSize=10;strokeColor=#0E7DAD;metaEdit=1;resizable=1;points=[[0.25,0,0],[0.5,0,0],[0.75,0,0],[1,0.25,0],[1,0.5,0],[1,0.75,0],[0.75,1,0],[0.5,1,0],[0.25,1,0],[0,0.75,0],[0,0.5,0],[0,0.25,0]];editable=1;movable=1;rotatable=1;deletable=1;locked=0;connectable=1;" vertex="1" parent="1">
            <mxGeometry x="1680" y="375" width="150" height="100" as="geometry" />
          </mxCell>
        </object>
        <mxCell id="OgZBjtJ-NomViNMuKFCO-3" value="Legend" style="shape=table;startSize=30;container=1;collapsible=0;childLayout=tableLayout;fontSize=16;align=left;verticalAlign=top;fillColor=none;strokeColor=none;fontColor=#4D4D4D;fontStyle=1;spacingLeft=6;spacing=0;resizable=0;" vertex="1" parent="1">
          <mxGeometry x="1670" y="755" width="180" height="209.99999999999955" as="geometry" />
        </mxCell>
        <mxCell id="OgZBjtJ-NomViNMuKFCO-4" value="" style="shape=tableRow;horizontal=0;startSize=0;swimlaneHead=0;swimlaneBody=0;strokeColor=inherit;top=0;left=0;bottom=0;right=0;collapsible=0;dropTarget=0;fillColor=none;points=[[0,0.5],[1,0.5]];portConstraint=eastwest;fontSize=12;" vertex="1" parent="OgZBjtJ-NomViNMuKFCO-3">
          <mxGeometry y="30" width="180" height="30" as="geometry" />
        </mxCell>
        <mxCell id="OgZBjtJ-NomViNMuKFCO-5" value="Person" style="shape=partialRectangle;html=1;whiteSpace=wrap;connectable=0;strokeColor=inherit;overflow=hidden;fillColor=#1E4074;top=0;left=0;bottom=0;right=0;pointerEvents=1;fontSize=12;align=left;fontColor=#FFFFFF;gradientColor=none;spacingLeft=10;spacingRight=4;" vertex="1" parent="OgZBjtJ-NomViNMuKFCO-4">
          <mxGeometry width="180" height="30" as="geometry">
            <mxRectangle width="180" height="30" as="alternateBounds" />
          </mxGeometry>
        </mxCell>
        <mxCell id="OgZBjtJ-NomViNMuKFCO-6" value="" style="shape=tableRow;horizontal=0;startSize=0;swimlaneHead=0;swimlaneBody=0;strokeColor=inherit;top=0;left=0;bottom=0;right=0;collapsible=0;dropTarget=0;fillColor=none;points=[[0,0.5],[1,0.5]];portConstraint=eastwest;fontSize=12;" vertex="1" parent="OgZBjtJ-NomViNMuKFCO-3">
          <mxGeometry y="60" width="180" height="30" as="geometry" />
        </mxCell>
        <mxCell id="OgZBjtJ-NomViNMuKFCO-7" value="Software System" style="shape=partialRectangle;html=1;whiteSpace=wrap;connectable=0;strokeColor=inherit;overflow=hidden;fillColor=#3162AF;top=0;left=0;bottom=0;right=0;pointerEvents=1;fontSize=12;align=left;fontColor=#FFFFFF;gradientColor=none;spacingLeft=10;spacingRight=4;" vertex="1" parent="OgZBjtJ-NomViNMuKFCO-6">
          <mxGeometry width="180" height="30" as="geometry">
            <mxRectangle width="180" height="30" as="alternateBounds" />
          </mxGeometry>
        </mxCell>
        <mxCell id="OgZBjtJ-NomViNMuKFCO-8" value="" style="shape=tableRow;horizontal=0;startSize=0;swimlaneHead=0;swimlaneBody=0;strokeColor=inherit;top=0;left=0;bottom=0;right=0;collapsible=0;dropTarget=0;fillColor=none;points=[[0,0.5],[1,0.5]];portConstraint=eastwest;fontSize=12;" vertex="1" parent="OgZBjtJ-NomViNMuKFCO-3">
          <mxGeometry y="90" width="180" height="30" as="geometry" />
        </mxCell>
        <mxCell id="OgZBjtJ-NomViNMuKFCO-9" value="Container" style="shape=partialRectangle;html=1;whiteSpace=wrap;connectable=0;strokeColor=inherit;overflow=hidden;fillColor=#52a2d8;top=0;left=0;bottom=0;right=0;pointerEvents=1;fontSize=12;align=left;fontColor=#FFFFFF;gradientColor=none;spacingLeft=10;spacingRight=4;" vertex="1" parent="OgZBjtJ-NomViNMuKFCO-8">
          <mxGeometry width="180" height="30" as="geometry">
            <mxRectangle width="180" height="30" as="alternateBounds" />
          </mxGeometry>
        </mxCell>
        <mxCell id="OgZBjtJ-NomViNMuKFCO-10" value="" style="shape=tableRow;horizontal=0;startSize=0;swimlaneHead=0;swimlaneBody=0;strokeColor=inherit;top=0;left=0;bottom=0;right=0;collapsible=0;dropTarget=0;fillColor=none;points=[[0,0.5],[1,0.5]];portConstraint=eastwest;fontSize=12;" vertex="1" parent="OgZBjtJ-NomViNMuKFCO-3">
          <mxGeometry y="120" width="180" height="30" as="geometry" />
        </mxCell>
        <mxCell id="OgZBjtJ-NomViNMuKFCO-11" value="Component" style="shape=partialRectangle;html=1;whiteSpace=wrap;connectable=0;strokeColor=inherit;overflow=hidden;fillColor=#7dbef2;top=0;left=0;bottom=0;right=0;pointerEvents=1;fontSize=12;align=left;fontColor=#FFFFFF;gradientColor=none;spacingLeft=10;spacingRight=4;" vertex="1" parent="OgZBjtJ-NomViNMuKFCO-10">
          <mxGeometry width="180" height="30" as="geometry">
            <mxRectangle width="180" height="30" as="alternateBounds" />
          </mxGeometry>
        </mxCell>
        <mxCell id="OgZBjtJ-NomViNMuKFCO-12" value="" style="shape=tableRow;horizontal=0;startSize=0;swimlaneHead=0;swimlaneBody=0;strokeColor=inherit;top=0;left=0;bottom=0;right=0;collapsible=0;dropTarget=0;fillColor=none;points=[[0,0.5],[1,0.5]];portConstraint=eastwest;fontSize=12;" vertex="1" parent="OgZBjtJ-NomViNMuKFCO-3">
          <mxGeometry y="150" width="180" height="30" as="geometry" />
        </mxCell>
        <mxCell id="OgZBjtJ-NomViNMuKFCO-13" value="External Person" style="shape=partialRectangle;html=1;whiteSpace=wrap;connectable=0;strokeColor=inherit;overflow=hidden;fillColor=#6b6477;top=0;left=0;bottom=0;right=0;pointerEvents=1;fontSize=12;align=left;fontColor=#FFFFFF;gradientColor=none;spacingLeft=10;spacingRight=4;" vertex="1" parent="OgZBjtJ-NomViNMuKFCO-12">
          <mxGeometry width="180" height="30" as="geometry">
            <mxRectangle width="180" height="30" as="alternateBounds" />
          </mxGeometry>
        </mxCell>
        <mxCell id="OgZBjtJ-NomViNMuKFCO-14" value="" style="shape=tableRow;horizontal=0;startSize=0;swimlaneHead=0;swimlaneBody=0;strokeColor=inherit;top=0;left=0;bottom=0;right=0;collapsible=0;dropTarget=0;fillColor=none;points=[[0,0.5],[1,0.5]];portConstraint=eastwest;fontSize=12;" vertex="1" parent="OgZBjtJ-NomViNMuKFCO-3">
          <mxGeometry y="180" width="180" height="30" as="geometry" />
        </mxCell>
        <mxCell id="OgZBjtJ-NomViNMuKFCO-15" value="External Software System" style="shape=partialRectangle;html=1;whiteSpace=wrap;connectable=0;strokeColor=inherit;overflow=hidden;fillColor=#8b8496;top=0;left=0;bottom=0;right=0;pointerEvents=1;fontSize=12;align=left;fontColor=#FFFFFF;gradientColor=none;spacingLeft=10;spacingRight=4;" vertex="1" parent="OgZBjtJ-NomViNMuKFCO-14">
          <mxGeometry width="180" height="30" as="geometry">
            <mxRectangle width="180" height="30" as="alternateBounds" />
          </mxGeometry>
        </mxCell>
        <mxCell id="OgZBjtJ-NomViNMuKFCO-22" value="Transfers orders and shows&lt;br style=&quot;box-sizing: content-box; -webkit-font-smoothing: antialiased; font-family: Helvetica, &amp;quot;VP Default&amp;quot;;&quot;&gt;&lt;span style=&quot;font-family: Helvetica, &amp;quot;VP Default&amp;quot;; background-color: rgb(255, 255, 255);&quot;&gt;the order status to the customer&lt;/span&gt;" style="text;html=1;align=center;verticalAlign=middle;resizable=0;points=[];autosize=1;strokeColor=none;fillColor=none;" vertex="1" parent="1">
          <mxGeometry x="550" y="410" width="190" height="40" as="geometry" />
        </mxCell>
        <object placeholders="1" c4Name="" c4Type="" c4Application="Order Entry System" label="&lt;font style=&quot;font-size: 16px&quot;&gt;&lt;b&gt;&lt;div style=&quot;text-align: left&quot;&gt;%c4Name%&lt;/div&gt;&lt;/b&gt;&lt;/font&gt;&lt;div style=&quot;text-align: left&quot;&gt;[%c4Application%]&lt;/div&gt;" id="6QBvNyIoq75DKk9HjANp-2">
          <mxCell style="rounded=1;fontSize=11;whiteSpace=wrap;html=1;dashed=1;arcSize=20;fillColor=none;strokeColor=#666666;fontColor=#333333;labelBackgroundColor=none;align=left;verticalAlign=bottom;labelBorderColor=none;spacingTop=0;spacing=10;dashPattern=8 4;metaEdit=1;rotatable=0;perimeter=rectanglePerimeter;noLabel=0;labelPadding=0;allowArrows=0;connectable=0;expand=0;recursiveResize=0;editable=1;pointerEvents=0;absoluteArcSize=1;points=[[0.25,0,0],[0.5,0,0],[0.75,0,0],[1,0.25,0],[1,0.5,0],[1,0.75,0],[0.75,1,0],[0.5,1,0],[0.25,1,0],[0,0.75,0],[0,0.5,0],[0,0.25,0]];" vertex="1" parent="1">
            <mxGeometry x="310" y="297.5" width="235" height="205" as="geometry" />
          </mxCell>
        </object>
        <mxCell id="6QBvNyIoq75DKk9HjANp-4" value="" style="endArrow=classic;startArrow=classic;html=1;rounded=0;exitX=0.986;exitY=0.58;exitDx=0;exitDy=0;exitPerimeter=0;" edge="1" parent="1" source="bpwPU3LfMTQjBl9-YYhJ-26">
          <mxGeometry width="50" height="50" relative="1" as="geometry">
            <mxPoint x="640" y="410" as="sourcePoint" />
            <mxPoint x="760" y="410" as="targetPoint" />
          </mxGeometry>
        </mxCell>
        <mxCell id="6QBvNyIoq75DKk9HjANp-6" value="" style="endArrow=classic;startArrow=classic;html=1;rounded=0;exitX=1;exitY=0.343;exitDx=0;exitDy=0;exitPerimeter=0;" edge="1" parent="1" source="bpwPU3LfMTQjBl9-YYhJ-29">
          <mxGeometry width="50" height="50" relative="1" as="geometry">
            <mxPoint x="1530" y="420" as="sourcePoint" />
            <mxPoint x="1680" y="419.29" as="targetPoint" />
          </mxGeometry>
        </mxCell>
        <mxCell id="6QBvNyIoq75DKk9HjANp-7" value="" style="endArrow=classic;startArrow=classic;html=1;rounded=0;" edge="1" parent="1">
          <mxGeometry width="50" height="50" relative="1" as="geometry">
            <mxPoint x="1119.29" y="560" as="sourcePoint" />
            <mxPoint x="1119" y="490" as="targetPoint" />
          </mxGeometry>
        </mxCell>
        <object placeholders="1" c4Name="BPA LAB C4-Container-Diagramm" c4Type="ContainerDiagramTitle" c4Description="" label="&lt;font style=&quot;font-size: 16px&quot;&gt;&lt;b&gt;&lt;div style=&quot;text-align: left&quot;&gt;%c4Name%&lt;/div&gt;&lt;/b&gt;&lt;/font&gt;&lt;div style=&quot;text-align: left&quot;&gt;%c4Description%&lt;/div&gt;" id="6QBvNyIoq75DKk9HjANp-8">
          <mxCell style="text;html=1;strokeColor=none;fillColor=none;align=left;verticalAlign=top;whiteSpace=wrap;rounded=0;metaEdit=1;allowArrows=0;resizable=1;rotatable=0;connectable=0;recursiveResize=0;expand=0;pointerEvents=0;points=[[0.25,0,0],[0.5,0,0],[0.75,0,0],[1,0.25,0],[1,0.5,0],[1,0.75,0],[0.75,1,0],[0.5,1,0],[0.25,1,0],[0,0.75,0],[0,0.5,0],[0,0.25,0]];" vertex="1" parent="1">
            <mxGeometry x="985" y="1050" width="260" height="40" as="geometry" />
          </mxCell>
        </object>
      </root>
    </mxGraphModel>
  </diagram>
</mxfile>
